<svg width="18" height="24" viewBox="0 0 18 24" fill="none" xmlns="http://www.w3.org/2000/svg">
<path d="M17.5 9H16V6.99998C16 3.14016 12.8599 0 9 0C5.14012 0 2.00002 3.14016 2.00002 6.99998V9H0.500016C0.223641 9 0 9.22364 0 9.50002V22C0 23.103 0.896953 24 2.00002 24H16C17.103 24 18 23.103 18 22V9.50002C18 9.22364 17.7764 9 17.5 9ZM10.4971 19.4448C10.5127 19.5859 10.4673 19.7275 10.3726 19.8335C10.2779 19.9395 10.1421 20 10 20H8.00002C7.85794 20 7.72219 19.9395 7.62745 19.8335C7.53272 19.7276 7.4873 19.586 7.50295 19.4448L7.81838 16.6084C7.30617 16.2359 7.00003 15.6465 7.00003 15C7.00003 13.897 7.89698 13 9.00005 13C10.1031 13 11.0001 13.8969 11.0001 15C11.0001 15.6465 10.6939 16.2359 10.1817 16.6084L10.4971 19.4448ZM13 9H5.00002V6.99998C5.00002 4.79442 6.79444 3 9 3C11.2056 3 13 4.79442 13 6.99998V9Z" fill="#757575"/>
</svg>
